<svg xmlns="http://www.w3.org/2000/svg" xmlns:xlink="http://www.w3.org/1999/xlink" width="200" height="34" viewBox="0 0 200 34"><defs><path id="9bb9a" d="M119.6 62.05l-.37 1.1h.71zm.6 1.94h-1.25l-.2.61h-1.03l1.47-4.12h.76l1.47 4.12h-1.04zm6.35-2.18a.4.4 0 0 0-.12-.3.43.43 0 0 0-.31-.12h-.57v.84h.57c.13 0 .23-.04.31-.12a.4.4 0 0 0 .12-.3zm1 0c0 .19-.04.37-.1.53a1.23 1.23 0 0 1-.73.7c-.17.06-.36.1-.56.1h-.6v1.46h-1v-4.12h1.6c.2 0 .39.03.56.1a1.23 1.23 0 0 1 .72.7c.07.15.1.33.1.53zm5.48.55l-1.3 2.24h-.88v-4.12h1v2.25l1.3-2.25h.88v4.12h-1zm4.53-1.88h.99v1.95l1.09-1.95h1.14l-1.2 1.92 1.34 2.2h-1.18l-1.2-2.16v2.16h-.98zm9.22 2.15l-.58 1.02h-.64l-.57-1.02v1.97h-1v-4.12h.98l.91 1.82.91-1.82h.98v4.12h-1zm6-.58l-.35 1.1h.7zm.6 1.94h-1.24l-.2.61h-1.03l1.47-4.12h.76l1.47 4.12h-1.04zm6.43.61l-.66-1.27-.67 1.27h-1.14l1.27-2.11-1.19-2.01h1.14l.59 1.16.59-1.16h1.13l-1.18 2 1.26 2.12zm4.27-4.12h2.75v.9h-1.76v.7h1.5v.9h-1.5v.72h1.76v.9h-2.75zm8.18 1.33a.4.4 0 0 0-.13-.3.43.43 0 0 0-.3-.12h-.57v.84h.56c.13 0 .23-.04.31-.12a.4.4 0 0 0 .13-.3zm.88.53a1.24 1.24 0 0 1-.72.7c-.17.06-.36.1-.56.1h-.6v1.46h-1v-4.12h1.6c.2 0 .4.03.56.1a1.24 1.24 0 0 1 .72.7c.07.15.1.33.1.53 0 .19-.03.37-.1.53zm6.15 1.55a1.35 1.35 0 0 1-.8.67 1.77 1.77 0 0 1-1.17-.03c-.18-.08-.34-.2-.49-.35-.1-.1-.18-.22-.24-.35-.06-.12-.1-.26-.12-.4a2.72 2.72 0 0 1-.04-.43 46.31 46.31 0 0 1 0-.91c0-.15.01-.3.04-.43.02-.14.06-.27.12-.4s.14-.24.24-.35c.15-.15.31-.27.5-.35a1.77 1.77 0 0 1 1.17-.04 1.35 1.35 0 0 1 .8.68c.09.16.15.36.2.6h-1.02a.77.77 0 0 0-.16-.32c-.08-.09-.2-.13-.36-.13-.1 0-.17.02-.24.05a.43.43 0 0 0-.15.12.68.68 0 0 0-.06.1.66.66 0 0 0-.05.18 7.72 7.72 0 0 0 0 1.5c.01.07.03.12.05.16a.43.43 0 0 0 .22.23c.06.03.14.05.23.05.16 0 .28-.04.36-.13.07-.1.13-.2.16-.31h1.01c-.04.23-.1.43-.2.6zm3.45-3.41h1v1.95l1.08-1.95h1.15l-1.2 1.92 1.33 2.2h-1.17l-1.2-2.16v2.16h-.99zm7.91 1.57l-.36 1.1h.7zm.6 1.94h-1.24l-.2.61h-1.04l1.47-4.12h.77l1.48 4.12h-1.04zm6.25-2.62h-.58a.42.42 0 0 0-.3.12.4.4 0 0 0-.13.3.42.42 0 0 0 .43.43h.58zm-2.18 3.23l.78-1.68a1.25 1.25 0 0 1-.6-1.11c0-.21.04-.4.1-.56a1.18 1.18 0 0 1 .73-.68c.17-.06.36-.1.56-.1h1.6v4.13h-.99v-1.47h-.4l-.59 1.47zm17.86-15.24c-.78-.64-2.13-1.23-4.05-1.76a12.99 12.99 0 0 1-4.25-1.8 3.44 3.44 0 0 1-1.34-2.93c0-1.28.53-2.3 1.58-3.06a6.73 6.73 0 0 1 4.04-1.14c1.65 0 3 .46 4.05 1.4a4.47 4.47 0 0 1 1.52 3.6l-.02.07h-.53a4.1 4.1 0 0 0-1.4-3.18 5.2 5.2 0 0 0-3.62-1.26c-1.53 0-2.75.35-3.65 1.04a3.08 3.08 0 0 0-.23 4.93c.74.64 2.08 1.21 4.02 1.71 1.88.5 3.3 1.12 4.25 1.84a3.64 3.64 0 0 1 1.44 3.1c0 1.35-.55 2.42-1.64 3.2a6.9 6.9 0 0 1-4.1 1.17c-1.7 0-3.17-.4-4.4-1.2-1.22-.81-1.81-2.08-1.77-3.8l.02-.07h.52c0 1.55.57 2.68 1.7 3.38a7.3 7.3 0 0 0 3.92 1.05c1.5 0 2.72-.34 3.67-1.03a3.17 3.17 0 0 0 1.44-2.68c0-1.08-.39-1.94-1.17-2.58zm14.42-1.99H219v8.08h9.8v.61h-10.4V38.89h10.4v.6H219v7.28h8.6zm13.8 8.08v.61H232V38.89h.6v16.56zm3.6-7.88v8.49h-.6V38.89H255v.6h-10v7.48h8.8v.6zm-104.9.86l5.31-9.54h1.64l-6.25 10.9v6.27h-1.4V49.7l-6.2-10.81h1.64zm18.9-6.9a4.73 4.73 0 0 0-3.86-1.7c-1.62 0-2.88.56-3.79 1.7a7.01 7.01 0 0 0-1.35 4.49v2.83c0 1.87.45 3.38 1.36 4.51a4.58 4.58 0 0 0 3.79 1.7c1.65 0 2.94-.56 3.87-1.7a6.94 6.94 0 0 0 1.38-4.51v-2.83c0-1.86-.47-3.36-1.4-4.5zm2.8 7.3c0 2.22-.6 4.01-1.8 5.38a6.12 6.12 0 0 1-4.85 2.06 6 6 0 0 1-4.77-2.06c-1.19-1.37-1.78-3.16-1.78-5.38v-2.8c0-2.21.6-4 1.78-5.39a5.96 5.96 0 0 1 4.76-2.06c2.03 0 3.64.69 4.85 2.06a7.87 7.87 0 0 1 1.81 5.39zm15.6 1.71c0 1.88-.57 3.3-1.7 4.3a6.51 6.51 0 0 1-4.45 1.49c-1.8 0-3.26-.5-4.38-1.5-1.11-1-1.67-2.42-1.67-4.29V38.9h1.4v11.64c0 1.47.43 2.6 1.29 3.4.86.8 1.98 1.2 3.36 1.2 1.4 0 2.55-.4 3.43-1.2.88-.8 1.32-1.93 1.32-3.4V38.9h1.4zm9.64-3.38c1.55 0 2.68-.31 3.4-.94a3.24 3.24 0 0 0 1.07-2.56c0-1.14-.35-2.02-1.07-2.64-.7-.61-1.78-.92-3.23-.92h-4.41v7.06zm-4.24 8.9h-1.4V38.89h5.81c1.81 0 3.2.4 4.16 1.2.97.81 1.45 1.99 1.45 3.54a4.1 4.1 0 0 1-.77 2.45 4.4 4.4 0 0 1-2.2 1.58c1.05.26 1.8.74 2.26 1.43.46.69.69 1.55.69 2.6v1.6c0 .54.06 1.02.19 1.45.12.42.32.77.61 1.04v.28h-1.42c-.29-.28-.49-.67-.6-1.18a6.98 6.98 0 0 1-.18-1.57v-1.56c0-1.04-.34-1.86-1.01-2.46-.67-.6-1.62-.9-2.82-.9h-4.77zM65.4 48.38h-7v4.85h8.2v2.83H55V38.89h11.6v2.62h-8.2v4.25h7zm13.72 7.68l-6.85-11.74-.07.01v11.73h-3.4V38.89h3.26l6.87 11.72.07-.01V38.89h3.4v17.17zM96.2 38.89v11.96c0 1.65-.54 2.96-1.6 3.93a5.83 5.83 0 0 1-4.07 1.45 6.36 6.36 0 0 1-4.21-1.3c-1.04-.87-1.54-2.15-1.5-3.84l.02-.07h3.32c0 .9.22 1.54.64 1.95.43.41 1 .62 1.73.62.63 0 1.17-.25 1.61-.74a2.9 2.9 0 0 0 .66-2V38.88zm13.4 6.96c0-1.34-.33-2.44-1-3.3a3.27 3.27 0 0 0-2.74-1.3c-1.16 0-2.06.43-2.7 1.3a5.39 5.39 0 0 0-.96 3.3v3.13c0 1.37.32 2.48.97 3.34a3.2 3.2 0 0 0 2.7 1.3c1.18 0 2.1-.44 2.75-1.3.65-.86.98-1.97.98-3.34zm1.42 8.35a6.8 6.8 0 0 1-5.15 2.07c-2.1 0-3.8-.69-5.1-2.07a7.3 7.3 0 0 1-1.97-5.23v-3.1c0-2.1.65-3.84 1.96-5.22a6.7 6.7 0 0 1 5.1-2.08c2.11 0 3.83.7 5.15 2.08a7.26 7.26 0 0 1 1.99 5.22v3.1c0 2.11-.66 3.86-1.98 5.23zm9.89-7.43h.07l3.7-7.88h3.76l-5.84 11.13v6.04h-3.4V49.8l-5.7-10.91h3.71zm134.05-14.15H188.4V31zM121.6 31v1.62H55.04zm83.61 32.35v-1.62h49.76zm-100 0l-50.14-1.62h50.14zm8.4-1.97h-1.07v3.22h-1v-4.12h3.06v4.12h-1z"/></defs><g><g transform="translate(-55 -31)"><use fill="#4a4a4a" xlink:href="#9bb9a"/></g></g></svg>