<svg xmlns="http://www.w3.org/2000/svg" xmlns:xlink="http://www.w3.org/1999/xlink" width="11" height="11" viewBox="0 0 11 11"><defs><path id="li50a" d="M1091.05 2743.38l.57.57a.4.4 0 0 1 0 .58l-3.97 3.97 3.97 3.97a.4.4 0 0 1 0 .58l-.57.57a.4.4 0 0 1-.58 0l-3.97-3.97-3.97 3.97a.4.4 0 0 1-.58 0l-.57-.57a.4.4 0 0 1 0-.58l3.97-3.97-3.97-3.97a.4.4 0 0 1 0-.58l.57-.57a.4.4 0 0 1 .58 0l3.97 3.97 3.97-3.97a.4.4 0 0 1 .58 0z"/></defs><g><g transform="translate(-1081 -2743)"><use fill="#e76955" xlink:href="#li50a"/></g></g></svg>